<svg id="Layer_1" data-name="Layer 1" xmlns="http://www.w3.org/2000/svg" xmlns:xlink="http://www.w3.org/1999/xlink" viewBox="0 0 57.33 77.04"><defs><style>.cls-1{fill:none;}.cls-2{clip-path:url(#clip-path);}.cls-3{fill:#2bb673;}.cls-4{fill:#2ab574;}.cls-5{fill:#2ab575;}.cls-6{fill:#2ab476;}.cls-7{fill:#29b477;}.cls-8{fill:#29b478;}.cls-9{fill:#28b379;}.cls-10{fill:#27b37a;}.cls-11{fill:#27b27a;}.cls-12{fill:#26b27b;}.cls-13{fill:#25b27c;}.cls-14{fill:#25b27d;}.cls-15{fill:#24b17e;}.cls-16{fill:#23b17f;}.cls-17{fill:#22b17f;}.cls-18{fill:#22b180;}.cls-19{fill:#21b081;}.cls-20{fill:#20b082;}.cls-21{fill:#1fb083;}.cls-22{fill:#1eb083;}.cls-23{fill:#1daf84;}.cls-24{fill:#1caf85;}.cls-25{fill:#1baf85;}.cls-26{fill:#1aaf86;}.cls-27{fill:#19ae87;}.cls-28{fill:#18ae87;}.cls-29{fill:#17ae88;}.cls-30{fill:#16ae89;}.cls-31{fill:#15ae89;}.cls-32{fill:#14ad8a;}.cls-33{fill:#13ad8b;}.cls-34{fill:#12ad8b;}.cls-35{fill:#11ad8c;}.cls-36{fill:#0fad8d;}.cls-37{fill:#0ead8d;}.cls-38{fill:#0dac8e;}.cls-39{fill:#0bac8e;}.cls-40{fill:#09ac8f;}.cls-41{fill:#08ac8f;}.cls-42{fill:#06ac90;}.cls-43{fill:#04ab90;}.cls-44{fill:#03ab91;}.cls-45{fill:#01ab92;}.cls-46{fill:#00ab92;}.cls-47{fill:#00ab93;}.cls-48{fill:#00aa94;}.cls-49{fill:#00aa95;}.cls-50{fill:#00aa96;}.cls-51{fill:#00a997;}.cls-52{fill:#00a998;}.cls-53{fill:#00a999;}.cls-54{fill:#00a89a;}.cls-55{fill:#00a89b;}.cls-56{fill:#00a89c;}.cls-57{fill:#00a79d;}.cls-58{fill:#231f20;}</style><clipPath id="clip-path" transform="translate(-7.35 -1.9)"><rect class="cls-1" x="14.23" y="1.9" width="50.45" height="77.04"/></clipPath></defs><title>banshee-isotipo</title><g class="cls-2"><polygon class="cls-3" points="31.57 77.03 57.33 51.27 57.33 77.03 31.57 77.03"/><polygon class="cls-3" points="30.2 77.03 57.33 49.9 57.33 51.27 31.57 77.03 30.2 77.03"/><polygon class="cls-4" points="28.83 77.03 57.33 48.53 57.33 49.9 30.2 77.03 28.83 77.03"/><polygon class="cls-5" points="27.46 77.03 57.33 47.16 57.33 48.53 28.83 77.03 27.46 77.03"/><polygon class="cls-6" points="26.08 77.03 57.33 45.79 57.33 47.16 27.46 77.03 26.08 77.03"/><polygon class="cls-7" points="24.71 77.03 57.33 44.41 57.33 45.79 26.08 77.03 24.71 77.03"/><polygon class="cls-8" points="23.34 77.03 57.33 43.04 57.33 44.41 24.71 77.03 23.34 77.03"/><polygon class="cls-9" points="21.97 77.03 57.33 41.67 57.33 43.04 23.34 77.03 21.97 77.03"/><polygon class="cls-10" points="20.6 77.03 57.33 40.3 57.33 41.67 21.97 77.03 20.6 77.03"/><polygon class="cls-11" points="19.23 77.03 57.33 38.93 57.33 40.3 20.6 77.03 19.23 77.03"/><polygon class="cls-12" points="17.86 77.03 57.33 37.56 57.33 38.93 19.23 77.03 17.86 77.03"/><polygon class="cls-13" points="16.48 77.03 57.33 36.19 57.33 37.56 17.86 77.03 16.48 77.03"/><polygon class="cls-14" points="15.11 77.03 57.33 34.81 57.33 36.19 16.48 77.03 15.11 77.03"/><polygon class="cls-15" points="13.74 77.03 57.33 33.44 57.33 34.81 15.11 77.03 13.74 77.03"/><polygon class="cls-16" points="12.37 77.03 57.33 32.07 57.33 33.44 13.74 77.03 12.37 77.03"/><polygon class="cls-17" points="11 77.03 57.33 30.7 57.33 32.07 12.37 77.03 11 77.03"/><polygon class="cls-18" points="9.63 77.03 57.33 29.33 57.33 30.7 11 77.03 9.63 77.03"/><polygon class="cls-19" points="8.26 77.03 57.33 27.96 57.33 29.33 9.63 77.03 8.26 77.03"/><polygon class="cls-20" points="6.88 77.03 57.33 26.59 57.33 27.96 8.26 77.03 6.88 77.03"/><polygon class="cls-21" points="6.88 75.67 57.33 25.21 57.33 26.59 6.88 77.03 6.88 77.03 6.88 75.67"/><polygon class="cls-22" points="6.88 74.29 57.33 23.84 57.33 25.21 6.88 75.67 6.88 74.29"/><polygon class="cls-23" points="6.88 72.92 57.33 22.47 57.33 23.84 6.88 74.29 6.88 72.92"/><polygon class="cls-24" points="6.88 71.55 57.33 21.1 57.33 22.47 6.88 72.92 6.88 71.55"/><polygon class="cls-25" points="6.88 70.18 57.33 19.73 57.33 21.1 6.88 71.55 6.88 70.18"/><polygon class="cls-26" points="6.88 68.81 57.33 18.36 57.33 19.73 6.88 70.18 6.88 68.81"/><polygon class="cls-27" points="6.88 67.44 57.33 16.99 57.33 18.36 6.88 68.81 6.88 67.44"/><polygon class="cls-28" points="6.88 66.06 57.33 15.61 57.33 16.99 6.88 67.44 6.88 66.06"/><polygon class="cls-29" points="6.88 64.69 57.33 14.24 57.33 15.61 6.88 66.06 6.88 64.69"/><polygon class="cls-30" points="6.88 63.32 57.33 12.87 57.33 14.24 6.88 64.69 6.88 63.32"/><polygon class="cls-31" points="6.88 61.95 57.33 11.5 57.33 12.87 6.88 63.32 6.88 61.95"/><polygon class="cls-32" points="6.88 60.58 57.33 10.13 57.33 11.5 6.88 61.95 6.88 60.58"/><polygon class="cls-33" points="6.88 59.21 57.33 8.76 57.33 10.13 6.88 60.58 6.88 59.21"/><polygon class="cls-34" points="6.88 57.84 57.33 7.39 57.33 8.76 6.88 59.21 6.88 57.84"/><polygon class="cls-35" points="6.88 56.47 57.33 6.01 57.33 7.39 6.88 57.84 6.88 56.47"/><polygon class="cls-36" points="6.88 55.09 57.33 4.64 57.33 6.01 6.88 56.47 6.88 55.09"/><polygon class="cls-37" points="6.88 53.72 57.33 3.27 57.33 4.64 6.88 55.09 6.88 53.72"/><polygon class="cls-38" points="6.88 52.35 57.33 1.9 57.33 3.27 6.88 53.72 6.88 52.35"/><polygon class="cls-39" points="6.88 50.98 57.33 0.53 57.33 1.9 6.88 52.35 6.88 50.98"/><polygon class="cls-40" points="6.88 49.61 56.49 0 57.33 0 57.33 0.53 6.88 50.98 6.88 49.61"/><polygon class="cls-41" points="6.88 48.24 55.12 0 56.49 0 6.88 49.61 6.88 48.24"/><polygon class="cls-42" points="6.88 46.87 53.75 0 55.12 0 6.88 48.24 6.88 46.87"/><polygon class="cls-43" points="6.88 45.49 52.38 0 53.75 0 6.88 46.87 6.88 45.49"/><polygon class="cls-44" points="6.88 44.12 51.01 0 52.38 0 6.88 45.49 6.88 44.12"/><polygon class="cls-45" points="6.88 42.75 49.63 0 51.01 0 6.88 44.12 6.88 42.75"/><polygon class="cls-46" points="6.88 41.38 48.26 0 49.63 0 6.88 42.75 6.88 41.38"/><polygon class="cls-47" points="6.88 40.01 46.89 0 48.26 0 6.88 41.38 6.88 40.01"/><polygon class="cls-47" points="6.88 38.64 45.52 0 46.89 0 6.88 40.01 6.88 38.64"/><polygon class="cls-48" points="6.88 37.27 44.15 0 45.52 0 6.88 38.64 6.88 37.27"/><polygon class="cls-48" points="6.88 35.89 42.78 0 44.15 0 6.88 37.27 6.88 35.89"/><polygon class="cls-48" points="6.88 34.52 41.41 0 42.78 0 6.88 35.89 6.88 34.52"/><polygon class="cls-49" points="6.88 33.15 40.03 0 41.41 0 6.88 34.52 6.88 33.15"/><polygon class="cls-49" points="6.88 31.78 38.66 0 40.03 0 6.88 33.15 6.88 31.78"/><polygon class="cls-50" points="6.88 30.41 37.29 0 38.66 0 6.88 31.78 6.88 30.41"/><polygon class="cls-50" points="6.88 29.04 35.92 0 37.29 0 6.88 30.41 6.88 29.04"/><polygon class="cls-51" points="6.88 27.66 34.55 0 35.92 0 6.88 29.04 6.88 27.66"/><polygon class="cls-51" points="6.88 26.29 33.18 0 34.55 0 6.88 27.66 6.88 26.29"/><polygon class="cls-52" points="6.88 24.92 31.81 0 33.18 0 6.88 26.29 6.88 24.92"/><polygon class="cls-52" points="6.88 23.55 30.43 0 31.81 0 6.88 24.92 6.88 23.55"/><polygon class="cls-52" points="6.88 22.18 29.06 0 30.43 0 6.88 23.55 6.88 22.18"/><polygon class="cls-53" points="6.88 20.81 27.69 0 29.06 0 6.88 22.18 6.88 20.81"/><polygon class="cls-53" points="6.88 19.44 26.32 0 27.69 0 6.88 20.81 6.88 19.44"/><polygon class="cls-54" points="6.88 18.07 24.95 0 26.32 0 6.88 19.44 6.88 18.07"/><polygon class="cls-54" points="6.88 16.69 23.58 0 24.95 0 6.88 18.07 6.88 16.69"/><polygon class="cls-54" points="6.88 15.32 22.21 0 23.58 0 6.88 16.69 6.88 15.32"/><polygon class="cls-55" points="6.88 13.95 20.84 0 22.21 0 6.88 15.32 6.88 13.95"/><polygon class="cls-55" points="6.88 12.58 19.46 0 20.84 0 6.88 13.95 6.88 12.58"/><polygon class="cls-55" points="6.88 11.21 18.09 0 19.46 0 6.88 12.58 6.88 11.21"/><polygon class="cls-56" points="6.88 9.84 16.72 0 18.09 0 6.88 11.21 6.88 9.84"/><polygon class="cls-56" points="6.88 8.46 15.35 0 16.72 0 6.88 9.84 6.88 8.46"/><polygon class="cls-56" points="6.88 7.09 13.98 0 15.35 0 6.88 8.46 6.88 7.09"/><polygon class="cls-56" points="6.88 5.72 12.61 0 13.98 0 6.88 7.09 6.88 5.72"/><polygon class="cls-57" points="6.88 4.35 11.23 0 12.61 0 6.88 5.72 6.88 4.35"/><polygon class="cls-57" points="6.88 2.98 9.86 0 11.23 0 6.88 4.35 6.88 2.98"/><polygon class="cls-57" points="6.88 1.61 8.49 0 9.86 0 6.88 2.98 6.88 1.61"/><polygon class="cls-57" points="6.88 0.24 7.12 0 8.49 0 6.88 1.61 6.88 0.24"/><polygon class="cls-57" points="7.12 0 6.88 0.24 6.88 0 7.12 0"/></g><path class="cls-58" d="M58.27,45.06a16.45,16.45,0,0,1,3.11,10.19,15.84,15.84,0,0,1-6.09,13.11Q49.2,73.21,38.51,73.2H14.14a6.78,6.78,0,0,1-5-1.77,6.78,6.78,0,0,1-1.77-5v-52a6.78,6.78,0,0,1,1.77-5,6.78,6.78,0,0,1,5-1.77H37.58q10.23,0,16.22,4.56a14.8,14.8,0,0,1,6,12.46,15.11,15.11,0,0,1-2.74,9,15.62,15.62,0,0,1-7.58,5.62A16.52,16.52,0,0,1,58.27,45.06ZM21.49,34.32H35.16q5.58,0,8.23-1.9A6.68,6.68,0,0,0,46,26.6q0-4.08-2.65-6t-8.23-1.9H21.49ZM45.2,60.18c1.74-1.31,2.61-3.41,2.61-6.33s-.87-5.05-2.61-6.41-4.52-2-8.37-2H21.49V62.13H36.83Q42.61,62.13,45.2,60.18Z" transform="translate(-7.35 -1.9)"/></svg>