<svg id="Layer_1" data-name="Layer 1" xmlns="http://www.w3.org/2000/svg" xmlns:xlink="http://www.w3.org/1999/xlink" viewBox="0 0 266.41 77.04"><defs><style>.cls-1{fill:none;}.cls-2{clip-path:url(#clip-path);}.cls-3{fill:#2bb673;}.cls-4{fill:#2ab574;}.cls-5{fill:#2ab575;}.cls-6{fill:#2ab476;}.cls-7{fill:#29b477;}.cls-8{fill:#29b478;}.cls-9{fill:#28b379;}.cls-10{fill:#27b37a;}.cls-11{fill:#27b27a;}.cls-12{fill:#26b27b;}.cls-13{fill:#25b27c;}.cls-14{fill:#25b27d;}.cls-15{fill:#24b17e;}.cls-16{fill:#23b17f;}.cls-17{fill:#22b17f;}.cls-18{fill:#22b180;}.cls-19{fill:#21b081;}.cls-20{fill:#20b082;}.cls-21{fill:#1fb083;}.cls-22{fill:#1eb083;}.cls-23{fill:#1daf84;}.cls-24{fill:#1caf85;}.cls-25{fill:#1baf85;}.cls-26{fill:#1aaf86;}.cls-27{fill:#19ae87;}.cls-28{fill:#18ae87;}.cls-29{fill:#17ae88;}.cls-30{fill:#16ae89;}.cls-31{fill:#15ae89;}.cls-32{fill:#14ad8a;}.cls-33{fill:#13ad8b;}.cls-34{fill:#12ad8b;}.cls-35{fill:#11ad8c;}.cls-36{fill:#0fad8d;}.cls-37{fill:#0ead8d;}.cls-38{fill:#0dac8e;}.cls-39{fill:#0bac8e;}.cls-40{fill:#09ac8f;}.cls-41{fill:#08ac8f;}.cls-42{fill:#06ac90;}.cls-43{fill:#04ab90;}.cls-44{fill:#03ab91;}.cls-45{fill:#01ab92;}.cls-46{fill:#00ab92;}.cls-47{fill:#00ab93;}.cls-48{fill:#00aa94;}.cls-49{fill:#00aa95;}.cls-50{fill:#00aa96;}.cls-51{fill:#00a997;}.cls-52{fill:#00a998;}.cls-53{fill:#00a999;}.cls-54{fill:#00a89a;}.cls-55{fill:#00a89b;}.cls-56{fill:#00a89c;}.cls-57{fill:#00a79d;}.cls-58{fill:#009444;}.cls-59{fill:#231f20;}</style><clipPath id="clip-path" transform="translate(0 0)"><rect class="cls-1" x="6.88" width="50.45" height="77.04"/></clipPath></defs><title>banshee-logo</title><g class="cls-2"><polygon class="cls-3" points="31.57 77.03 57.33 51.27 57.33 77.03 31.57 77.03"/><polygon class="cls-3" points="30.2 77.03 57.33 49.9 57.33 51.27 31.57 77.03 30.2 77.03"/><polygon class="cls-4" points="28.83 77.03 57.33 48.53 57.33 49.9 30.2 77.03 28.83 77.03"/><polygon class="cls-5" points="27.46 77.03 57.33 47.16 57.33 48.53 28.83 77.03 27.46 77.03"/><polygon class="cls-6" points="26.08 77.03 57.33 45.79 57.33 47.16 27.46 77.03 26.08 77.03"/><polygon class="cls-7" points="24.71 77.03 57.33 44.41 57.33 45.79 26.08 77.03 24.71 77.03"/><polygon class="cls-8" points="23.34 77.03 57.33 43.04 57.33 44.41 24.71 77.03 23.34 77.03"/><polygon class="cls-9" points="21.97 77.03 57.33 41.67 57.33 43.04 23.34 77.03 21.97 77.03"/><polygon class="cls-10" points="20.6 77.03 57.33 40.3 57.33 41.67 21.97 77.03 20.6 77.03"/><polygon class="cls-11" points="19.23 77.03 57.33 38.93 57.33 40.3 20.6 77.03 19.23 77.03"/><polygon class="cls-12" points="17.86 77.03 57.33 37.56 57.33 38.93 19.23 77.03 17.86 77.03"/><polygon class="cls-13" points="16.48 77.03 57.33 36.19 57.33 37.56 17.86 77.03 16.48 77.03"/><polygon class="cls-14" points="15.11 77.03 57.33 34.81 57.33 36.19 16.48 77.03 15.11 77.03"/><polygon class="cls-15" points="13.74 77.03 57.33 33.44 57.33 34.81 15.11 77.03 13.74 77.03"/><polygon class="cls-16" points="12.37 77.03 57.33 32.07 57.33 33.44 13.74 77.03 12.37 77.03"/><polygon class="cls-17" points="11 77.03 57.33 30.7 57.33 32.07 12.37 77.03 11 77.03"/><polygon class="cls-18" points="9.63 77.03 57.33 29.33 57.33 30.7 11 77.03 9.63 77.03"/><polygon class="cls-19" points="8.26 77.03 57.33 27.96 57.33 29.33 9.63 77.03 8.26 77.03"/><polygon class="cls-20" points="6.88 77.03 57.33 26.59 57.33 27.96 8.26 77.03 6.88 77.03"/><polygon class="cls-21" points="6.88 75.67 57.33 25.21 57.33 26.59 6.88 77.03 6.88 77.03 6.88 75.67"/><polygon class="cls-22" points="6.88 74.29 57.33 23.84 57.33 25.21 6.88 75.67 6.88 74.29"/><polygon class="cls-23" points="6.88 72.92 57.33 22.47 57.33 23.84 6.88 74.29 6.88 72.92"/><polygon class="cls-24" points="6.88 71.55 57.33 21.1 57.33 22.47 6.88 72.92 6.88 71.55"/><polygon class="cls-25" points="6.88 70.18 57.33 19.73 57.33 21.1 6.88 71.55 6.88 70.18"/><polygon class="cls-26" points="6.88 68.81 57.33 18.36 57.33 19.73 6.88 70.18 6.88 68.81"/><polygon class="cls-27" points="6.88 67.44 57.33 16.99 57.33 18.36 6.88 68.81 6.88 67.44"/><polygon class="cls-28" points="6.88 66.06 57.33 15.61 57.33 16.99 6.88 67.44 6.88 66.06"/><polygon class="cls-29" points="6.88 64.69 57.33 14.24 57.33 15.61 6.88 66.06 6.88 64.69"/><polygon class="cls-30" points="6.88 63.32 57.33 12.87 57.33 14.24 6.88 64.69 6.88 63.32"/><polygon class="cls-31" points="6.88 61.95 57.33 11.5 57.33 12.87 6.88 63.32 6.88 61.95"/><polygon class="cls-32" points="6.88 60.58 57.33 10.13 57.33 11.5 6.88 61.95 6.88 60.58"/><polygon class="cls-33" points="6.88 59.21 57.33 8.76 57.33 10.13 6.88 60.58 6.88 59.21"/><polygon class="cls-34" points="6.88 57.84 57.33 7.39 57.33 8.76 6.88 59.21 6.88 57.84"/><polygon class="cls-35" points="6.88 56.47 57.33 6.01 57.33 7.39 6.88 57.84 6.88 56.47"/><polygon class="cls-36" points="6.88 55.09 57.33 4.64 57.33 6.01 6.88 56.47 6.88 55.09"/><polygon class="cls-37" points="6.88 53.72 57.33 3.27 57.33 4.64 6.88 55.09 6.88 53.72"/><polygon class="cls-38" points="6.88 52.35 57.33 1.9 57.33 3.27 6.88 53.72 6.88 52.35"/><polygon class="cls-39" points="6.88 50.98 57.33 0.53 57.33 1.9 6.88 52.35 6.88 50.98"/><polygon class="cls-40" points="6.88 49.61 56.49 0 57.33 0 57.33 0.53 6.88 50.98 6.88 49.61"/><polygon class="cls-41" points="6.88 48.24 55.12 0 56.49 0 6.88 49.61 6.88 48.24"/><polygon class="cls-42" points="6.88 46.87 53.75 0 55.12 0 6.88 48.24 6.88 46.87"/><polygon class="cls-43" points="6.88 45.49 52.38 0 53.75 0 6.88 46.87 6.88 45.49"/><polygon class="cls-44" points="6.88 44.12 51.01 0 52.38 0 6.88 45.49 6.88 44.12"/><polygon class="cls-45" points="6.88 42.75 49.63 0 51.01 0 6.88 44.12 6.88 42.75"/><polygon class="cls-46" points="6.88 41.38 48.26 0 49.63 0 6.88 42.75 6.88 41.38"/><polygon class="cls-47" points="6.88 40.01 46.89 0 48.26 0 6.88 41.38 6.88 40.01"/><polygon class="cls-47" points="6.88 38.64 45.52 0 46.89 0 6.88 40.01 6.88 38.64"/><polygon class="cls-48" points="6.88 37.27 44.15 0 45.52 0 6.88 38.64 6.88 37.27"/><polygon class="cls-48" points="6.88 35.89 42.78 0 44.15 0 6.88 37.27 6.88 35.89"/><polygon class="cls-48" points="6.88 34.52 41.41 0 42.78 0 6.88 35.89 6.88 34.52"/><polygon class="cls-49" points="6.88 33.15 40.03 0 41.41 0 6.88 34.52 6.88 33.15"/><polygon class="cls-49" points="6.88 31.78 38.66 0 40.03 0 6.88 33.15 6.88 31.78"/><polygon class="cls-50" points="6.88 30.41 37.29 0 38.66 0 6.88 31.78 6.88 30.41"/><polygon class="cls-50" points="6.88 29.04 35.92 0 37.29 0 6.88 30.41 6.88 29.04"/><polygon class="cls-51" points="6.88 27.66 34.55 0 35.92 0 6.88 29.04 6.88 27.66"/><polygon class="cls-51" points="6.88 26.29 33.18 0 34.55 0 6.88 27.66 6.88 26.29"/><polygon class="cls-52" points="6.88 24.92 31.81 0 33.18 0 6.88 26.29 6.88 24.92"/><polygon class="cls-52" points="6.88 23.55 30.43 0 31.81 0 6.88 24.92 6.88 23.55"/><polygon class="cls-52" points="6.88 22.18 29.06 0 30.43 0 6.88 23.55 6.88 22.18"/><polygon class="cls-53" points="6.88 20.81 27.69 0 29.06 0 6.88 22.18 6.88 20.81"/><polygon class="cls-53" points="6.88 19.44 26.32 0 27.69 0 6.88 20.81 6.88 19.44"/><polygon class="cls-54" points="6.88 18.07 24.95 0 26.32 0 6.88 19.44 6.88 18.07"/><polygon class="cls-54" points="6.88 16.69 23.58 0 24.95 0 6.88 18.07 6.88 16.69"/><polygon class="cls-54" points="6.88 15.32 22.21 0 23.58 0 6.88 16.69 6.88 15.32"/><polygon class="cls-55" points="6.88 13.95 20.84 0 22.21 0 6.88 15.32 6.88 13.95"/><polygon class="cls-55" points="6.88 12.58 19.46 0 20.84 0 6.88 13.95 6.88 12.58"/><polygon class="cls-55" points="6.88 11.21 18.09 0 19.46 0 6.88 12.58 6.88 11.21"/><polygon class="cls-56" points="6.88 9.84 16.72 0 18.09 0 6.88 11.21 6.88 9.84"/><polygon class="cls-56" points="6.88 8.46 15.35 0 16.72 0 6.88 9.84 6.88 8.46"/><polygon class="cls-56" points="6.88 7.09 13.98 0 15.35 0 6.88 8.46 6.88 7.09"/><polygon class="cls-56" points="6.88 5.72 12.61 0 13.98 0 6.88 7.09 6.88 5.72"/><polygon class="cls-57" points="6.88 4.35 11.23 0 12.61 0 6.88 5.72 6.88 4.35"/><polygon class="cls-57" points="6.88 2.98 9.86 0 11.23 0 6.88 4.35 6.88 2.98"/><polygon class="cls-57" points="6.88 1.61 8.49 0 9.86 0 6.88 2.98 6.88 1.61"/><polygon class="cls-57" points="6.88 0.24 7.12 0 8.49 0 6.88 1.61 6.88 0.24"/><polygon class="cls-57" points="7.12 0 6.88 0.24 6.88 0 7.12 0"/></g><path class="cls-58" d="M87,21.4q3.32,3.34,3.31,10.22V46a4.35,4.35,0,0,1-1.21,3.28,4.61,4.61,0,0,1-3.37,1.18,4.45,4.45,0,0,1-3.29-1.24A4.39,4.39,0,0,1,81.16,46v-.45A7.5,7.5,0,0,1,78,49.27a10,10,0,0,1-5.23,1.34A12.83,12.83,0,0,1,67,49.33a10.1,10.1,0,0,1-4.08-3.56,9.12,9.12,0,0,1-1.5-5.1,7.89,7.89,0,0,1,1.76-5.42,10.42,10.42,0,0,1,5.63-2.86,49.49,49.49,0,0,1,10.64-.89H81.1V30.35a5.42,5.42,0,0,0-1.18-3.89A5.35,5.35,0,0,0,76,25.25a25.19,25.19,0,0,0-7.9,1.91,6,6,0,0,1-2.48.71,2.75,2.75,0,0,1-2.23-1,3.9,3.9,0,0,1-.83-2.58,3.61,3.61,0,0,1,.57-2.1A5.22,5.22,0,0,1,65,20.67a20.28,20.28,0,0,1,5.45-1.91,29.55,29.55,0,0,1,6.34-.71Q83.64,18.05,87,21.4ZM79.38,42.1a7,7,0,0,0,1.72-4.87V36.15H80c-3.44,0-5.86.27-7.24.83a3,3,0,0,0-2.07,3,3.83,3.83,0,0,0,1.18,2.9,4.17,4.17,0,0,0,3,1.11A5.84,5.84,0,0,0,79.38,42.1Z" transform="translate(0 0)"/><path class="cls-58" d="M125.44,21.34c1.82,2.18,2.74,5.49,2.74,9.9V46a4.3,4.3,0,0,1-1.31,3.31,5,5,0,0,1-3.54,1.21,4.87,4.87,0,0,1-3.5-1.21A4.35,4.35,0,0,1,118.56,46V31.69A7.41,7.41,0,0,0,117.38,27a4.43,4.43,0,0,0-3.67-1.47,6.35,6.35,0,0,0-4.81,1.91,7.12,7.12,0,0,0-1.81,5.1V46a4.35,4.35,0,0,1-1.28,3.31,4.85,4.85,0,0,1-3.5,1.21,5,5,0,0,1-3.53-1.21A4.27,4.27,0,0,1,97.47,46V22.58a4.07,4.07,0,0,1,1.37-3.19,5.16,5.16,0,0,1,3.53-1.21,4.51,4.51,0,0,1,3.22,1.18,4,4,0,0,1,1.24,3v.89a11,11,0,0,1,4.3-3.89,13.06,13.06,0,0,1,6-1.34Q122.7,18.05,125.44,21.34Z" transform="translate(0 0)"/><path class="cls-58" d="M140.47,50a15,15,0,0,1-5-2A3.86,3.86,0,0,1,134,46.4a4.5,4.5,0,0,1-.51-2.16,3.72,3.72,0,0,1,.83-2.46,2.57,2.57,0,0,1,2-1,5,5,0,0,1,1.65.28c.56.19,1.13.42,1.72.67a22.21,22.21,0,0,0,3.51,1.31,16.11,16.11,0,0,0,4.27.48,7.22,7.22,0,0,0,3.47-.7,2.14,2.14,0,0,0,1.24-1.92,1.94,1.94,0,0,0-.54-1.43,5,5,0,0,0-2-1q-1.45-.44-4.65-1.08-5.67-1.08-8.15-3.25a7.59,7.59,0,0,1-2.49-6.05A8.34,8.34,0,0,1,136.1,23a11.68,11.68,0,0,1,4.82-3.6,17.33,17.33,0,0,1,6.88-1.31,20.52,20.52,0,0,1,5.35.71,16.84,16.84,0,0,1,4.65,2,3.94,3.94,0,0,1,2,3.57,3.93,3.93,0,0,1-.83,2.55,2.53,2.53,0,0,1-2,1,7.54,7.54,0,0,1-3.5-1.15,18.1,18.1,0,0,0-2.9-1.24,10.13,10.13,0,0,0-3.09-.42,5.76,5.76,0,0,0-3.12.74,2.25,2.25,0,0,0-1.14,2,2.21,2.21,0,0,0,1.33,2,20.9,20.9,0,0,0,5.16,1.4,27.44,27.44,0,0,1,6.69,2,8.11,8.11,0,0,1,3.51,3,8.62,8.62,0,0,1,1.08,4.52,8.4,8.4,0,0,1-3.73,7.2q-3.72,2.68-10,2.68A31.07,31.07,0,0,1,140.47,50Z" transform="translate(0 0)"/><path class="cls-58" d="M197.1,31.24V46a4.29,4.29,0,0,1-1.3,3.31,5,5,0,0,1-3.54,1.21,4.85,4.85,0,0,1-3.5-1.21A4.35,4.35,0,0,1,187.48,46V31.11a6.27,6.27,0,0,0-1.18-4.17,4.57,4.57,0,0,0-3.66-1.37,6.33,6.33,0,0,0-4.81,1.91,7.12,7.12,0,0,0-1.81,5.1V46a4.35,4.35,0,0,1-1.28,3.31,4.87,4.87,0,0,1-3.5,1.21,5,5,0,0,1-3.54-1.21A4.29,4.29,0,0,1,166.4,46V9.26a4,4,0,0,1,1.37-3.18,5.21,5.21,0,0,1,3.6-1.21A4.86,4.86,0,0,1,174.74,6,3.93,3.93,0,0,1,176,9.07V23a10.61,10.61,0,0,1,4.26-3.66,13.62,13.62,0,0,1,5.93-1.25Q197.1,18.05,197.1,31.24Z" transform="translate(0 0)"/><path class="cls-58" d="M231.47,41.82a4.12,4.12,0,0,1,.8,2.61,3.53,3.53,0,0,1-.64,2A5.35,5.35,0,0,1,229.85,48a23.34,23.34,0,0,1-5,1.88,21.84,21.84,0,0,1-5.29.73,18.91,18.91,0,0,1-8.88-2A13.74,13.74,0,0,1,204.81,43a17.43,17.43,0,0,1-2-8.63,17.65,17.65,0,0,1,2-8.47,14.46,14.46,0,0,1,5.47-5.76,15.38,15.38,0,0,1,8-2.08,14.58,14.58,0,0,1,7.48,1.88,12.83,12.83,0,0,1,5,5.36,17.51,17.51,0,0,1,1.79,8.12,3.09,3.09,0,0,1-.67,2.13,2.41,2.41,0,0,1-1.88.73H212.07q.45,3.76,2.29,5.45a7.57,7.57,0,0,0,5.29,1.69A11.35,11.35,0,0,0,223,43a30.79,30.79,0,0,0,3.24-1.21c.6-.25,1.17-.48,1.72-.67a4.6,4.6,0,0,1,1.47-.28A2.5,2.5,0,0,1,231.47,41.82ZM214.05,26.43a8.28,8.28,0,0,0-2,5.07h12.3a8.34,8.34,0,0,0-1.69-5.1,5.31,5.31,0,0,0-4.24-1.72A5.75,5.75,0,0,0,214.05,26.43Z" transform="translate(0 0)"/><path class="cls-58" d="M265.42,41.82a4.12,4.12,0,0,1,.8,2.61,3.45,3.45,0,0,1-.64,2A5.25,5.25,0,0,1,263.8,48a23.25,23.25,0,0,1-5,1.88,21.9,21.9,0,0,1-5.29.73,19,19,0,0,1-8.89-2A13.74,13.74,0,0,1,238.76,43a17.43,17.43,0,0,1-2-8.63,17.65,17.65,0,0,1,2-8.47,14.48,14.48,0,0,1,5.48-5.76,15.34,15.34,0,0,1,8-2.08,14.62,14.62,0,0,1,7.49,1.88,12.9,12.9,0,0,1,5,5.36,17.51,17.51,0,0,1,1.78,8.12,3,3,0,0,1-.67,2.13,2.4,2.4,0,0,1-1.88.73H246c.29,2.51,1.06,4.33,2.29,5.45a7.54,7.54,0,0,0,5.29,1.69,11.28,11.28,0,0,0,3.31-.45,30.08,30.08,0,0,0,3.25-1.21c.59-.25,1.17-.48,1.72-.67a4.54,4.54,0,0,1,1.46-.28A2.5,2.5,0,0,1,265.42,41.82ZM248,26.43a8.34,8.34,0,0,0-2,5.07h12.29a8.34,8.34,0,0,0-1.69-5.1,5.3,5.3,0,0,0-4.23-1.72A5.75,5.75,0,0,0,248,26.43Z" transform="translate(0 0)"/><path class="cls-59" d="M87,21.4q3.32,3.34,3.31,10.22V46a4.35,4.35,0,0,1-1.21,3.28,4.61,4.61,0,0,1-3.37,1.18,4.45,4.45,0,0,1-3.29-1.24A4.39,4.39,0,0,1,81.16,46v-.45A7.5,7.5,0,0,1,78,49.27a10,10,0,0,1-5.23,1.34A12.83,12.83,0,0,1,67,49.33a10.1,10.1,0,0,1-4.08-3.56,9.12,9.12,0,0,1-1.5-5.1,7.89,7.89,0,0,1,1.76-5.42,10.42,10.42,0,0,1,5.63-2.86,49.49,49.49,0,0,1,10.64-.89H81.1V30.35a5.42,5.42,0,0,0-1.18-3.89A5.35,5.35,0,0,0,76,25.25a25.19,25.19,0,0,0-7.9,1.91,6,6,0,0,1-2.48.71,2.75,2.75,0,0,1-2.23-1,3.9,3.9,0,0,1-.83-2.58,3.61,3.61,0,0,1,.57-2.1A5.22,5.22,0,0,1,65,20.67a20.28,20.28,0,0,1,5.45-1.91,29.55,29.55,0,0,1,6.34-.71Q83.64,18.05,87,21.4ZM79.38,42.1a7,7,0,0,0,1.72-4.87V36.15H80c-3.44,0-5.86.27-7.24.83a3,3,0,0,0-2.07,3,3.83,3.83,0,0,0,1.18,2.9,4.17,4.17,0,0,0,3,1.11A5.84,5.84,0,0,0,79.38,42.1Z" transform="translate(0 0)"/><path class="cls-59" d="M125.44,21.34c1.82,2.18,2.74,5.49,2.74,9.9V46a4.3,4.3,0,0,1-1.31,3.31,5,5,0,0,1-3.54,1.21,4.87,4.87,0,0,1-3.5-1.21A4.35,4.35,0,0,1,118.56,46V31.69A7.41,7.41,0,0,0,117.38,27a4.43,4.43,0,0,0-3.67-1.47,6.35,6.35,0,0,0-4.81,1.91,7.12,7.12,0,0,0-1.81,5.1V46a4.35,4.35,0,0,1-1.28,3.31,4.85,4.85,0,0,1-3.5,1.21,5,5,0,0,1-3.53-1.21A4.27,4.27,0,0,1,97.47,46V22.58a4.07,4.07,0,0,1,1.37-3.19,5.16,5.16,0,0,1,3.53-1.21,4.51,4.51,0,0,1,3.22,1.18,4,4,0,0,1,1.24,3v.89a11,11,0,0,1,4.3-3.89,13.06,13.06,0,0,1,6-1.34Q122.7,18.05,125.44,21.34Z" transform="translate(0 0)"/><path class="cls-59" d="M140.47,50a15,15,0,0,1-5-2A3.86,3.86,0,0,1,134,46.4a4.5,4.5,0,0,1-.51-2.16,3.72,3.72,0,0,1,.83-2.46,2.57,2.57,0,0,1,2-1,5,5,0,0,1,1.65.28c.56.19,1.13.42,1.72.67a22.21,22.21,0,0,0,3.51,1.31,16.11,16.11,0,0,0,4.27.48,7.22,7.22,0,0,0,3.47-.7,2.14,2.14,0,0,0,1.24-1.92,1.94,1.94,0,0,0-.54-1.43,5,5,0,0,0-2-1q-1.45-.44-4.65-1.08-5.67-1.08-8.15-3.25a7.59,7.59,0,0,1-2.49-6.05A8.34,8.34,0,0,1,136.1,23a11.68,11.68,0,0,1,4.82-3.6,17.33,17.33,0,0,1,6.88-1.31,20.52,20.52,0,0,1,5.35.71,16.84,16.84,0,0,1,4.65,2,3.94,3.94,0,0,1,2,3.57,3.93,3.93,0,0,1-.83,2.55,2.53,2.53,0,0,1-2,1,7.54,7.54,0,0,1-3.5-1.15,18.1,18.1,0,0,0-2.9-1.24,10.13,10.13,0,0,0-3.09-.42,5.76,5.76,0,0,0-3.12.74,2.25,2.25,0,0,0-1.14,2,2.21,2.21,0,0,0,1.33,2,20.9,20.9,0,0,0,5.16,1.4,27.44,27.44,0,0,1,6.69,2,8.11,8.11,0,0,1,3.51,3,8.62,8.62,0,0,1,1.08,4.52,8.4,8.4,0,0,1-3.73,7.2q-3.72,2.68-10,2.68A31.07,31.07,0,0,1,140.47,50Z" transform="translate(0 0)"/><path class="cls-59" d="M197.1,31.24V46a4.29,4.29,0,0,1-1.3,3.31,5,5,0,0,1-3.54,1.21,4.85,4.85,0,0,1-3.5-1.21A4.35,4.35,0,0,1,187.48,46V31.11a6.27,6.27,0,0,0-1.18-4.17,4.57,4.57,0,0,0-3.66-1.37,6.33,6.33,0,0,0-4.81,1.91,7.12,7.12,0,0,0-1.81,5.1V46a4.35,4.35,0,0,1-1.28,3.31,4.87,4.87,0,0,1-3.5,1.21,5,5,0,0,1-3.54-1.21A4.29,4.29,0,0,1,166.4,46V9.26a4,4,0,0,1,1.37-3.18,5.21,5.21,0,0,1,3.6-1.21A4.86,4.86,0,0,1,174.74,6,3.93,3.93,0,0,1,176,9.07V23a10.61,10.61,0,0,1,4.26-3.66,13.62,13.62,0,0,1,5.93-1.25Q197.1,18.05,197.1,31.24Z" transform="translate(0 0)"/><path class="cls-59" d="M231.47,41.82a4.12,4.12,0,0,1,.8,2.61,3.53,3.53,0,0,1-.64,2A5.35,5.35,0,0,1,229.85,48a23.34,23.34,0,0,1-5,1.88,21.84,21.84,0,0,1-5.29.73,18.91,18.91,0,0,1-8.88-2A13.74,13.74,0,0,1,204.81,43a17.43,17.43,0,0,1-2-8.63,17.65,17.65,0,0,1,2-8.47,14.46,14.46,0,0,1,5.47-5.76,15.38,15.38,0,0,1,8-2.08,14.58,14.58,0,0,1,7.48,1.88,12.83,12.83,0,0,1,5,5.36,17.51,17.51,0,0,1,1.79,8.12,3.09,3.09,0,0,1-.67,2.13,2.41,2.41,0,0,1-1.88.73H212.07q.45,3.76,2.29,5.45a7.57,7.57,0,0,0,5.29,1.69A11.35,11.35,0,0,0,223,43a30.79,30.79,0,0,0,3.24-1.21c.6-.25,1.17-.48,1.72-.67a4.6,4.6,0,0,1,1.47-.28A2.5,2.5,0,0,1,231.47,41.82ZM214.05,26.43a8.28,8.28,0,0,0-2,5.07h12.3a8.34,8.34,0,0,0-1.69-5.1,5.31,5.31,0,0,0-4.24-1.72A5.75,5.75,0,0,0,214.05,26.43Z" transform="translate(0 0)"/><path class="cls-59" d="M265.42,41.82a4.12,4.12,0,0,1,.8,2.61,3.45,3.45,0,0,1-.64,2A5.25,5.25,0,0,1,263.8,48a23.25,23.25,0,0,1-5,1.88,21.9,21.9,0,0,1-5.29.73,19,19,0,0,1-8.89-2A13.74,13.74,0,0,1,238.76,43a17.43,17.43,0,0,1-2-8.63,17.65,17.65,0,0,1,2-8.47,14.48,14.48,0,0,1,5.48-5.76,15.34,15.34,0,0,1,8-2.08,14.62,14.62,0,0,1,7.49,1.88,12.9,12.9,0,0,1,5,5.36,17.51,17.51,0,0,1,1.78,8.12,3,3,0,0,1-.67,2.13,2.4,2.4,0,0,1-1.88.73H246c.29,2.51,1.06,4.33,2.29,5.45a7.54,7.54,0,0,0,5.29,1.69,11.28,11.28,0,0,0,3.31-.45,30.08,30.08,0,0,0,3.25-1.21c.59-.25,1.17-.48,1.72-.67a4.54,4.54,0,0,1,1.46-.28A2.5,2.5,0,0,1,265.42,41.82ZM248,26.43a8.34,8.34,0,0,0-2,5.07h12.29a8.34,8.34,0,0,0-1.69-5.1,5.3,5.3,0,0,0-4.23-1.72A5.75,5.75,0,0,0,248,26.43Z" transform="translate(0 0)"/><path class="cls-59" d="M70.79,64.39a3.54,3.54,0,0,1,.67,2.21,3.43,3.43,0,0,1-1.21,2.84,5.35,5.35,0,0,1-3.43,1h-5a.66.66,0,0,1-.47-.18.58.58,0,0,1-.19-.44V56.94a.58.58,0,0,1,.19-.44.66.66,0,0,1,.47-.18h4.78a5.17,5.17,0,0,1,3.34,1,3.68,3.68,0,0,1,.59,4.7A3.52,3.52,0,0,1,68.9,63.2,3.28,3.28,0,0,1,70.79,64.39ZM62.4,62.72h4A4.13,4.13,0,0,0,69,62a2.42,2.42,0,0,0,.88-2q0-2.62-3.46-2.62h-4Zm7,6a2.44,2.44,0,0,0,.85-2q0-2.84-3.48-2.84H62.4v5.56h4.34A4.21,4.21,0,0,0,69.37,68.69Z" transform="translate(0 0)"/><path class="cls-59" d="M74.33,58a.81.81,0,0,1-.25-.62.83.83,0,0,1,.25-.64,1,1,0,0,1,1.3,0,.83.83,0,0,1,.25.64.81.81,0,0,1-.25.62,1,1,0,0,1-1.3,0Zm.2,12.34a.62.62,0,0,1-.17-.46V61.14a.62.62,0,0,1,.17-.46.61.61,0,0,1,.45-.16.58.58,0,0,1,.44.16.61.61,0,0,1,.16.46V69.9a.61.61,0,0,1-.16.46.58.58,0,0,1-.44.16A.61.61,0,0,1,74.53,70.36Z" transform="translate(0 0)"/><path class="cls-59" d="M80.32,69.94a4.16,4.16,0,0,1-1.58-1.76,6.43,6.43,0,0,1,0-5.27,4.28,4.28,0,0,1,1.6-1.79,4.38,4.38,0,0,1,2.37-.64,5.62,5.62,0,0,1,1.48.2,3.87,3.87,0,0,1,1.28.6,2.18,2.18,0,0,1,.51.47.76.76,0,0,1,.15.45.52.52,0,0,1-.12.36.39.39,0,0,1-.3.14,1.3,1.3,0,0,1-.64-.34,5.56,5.56,0,0,0-1-.6,3.19,3.19,0,0,0-1.26-.22,3,3,0,0,0-2.44,1.07,4.49,4.49,0,0,0-.88,3,4.36,4.36,0,0,0,.87,2.89,3,3,0,0,0,2.43,1A3.14,3.14,0,0,0,84,69.26a8.91,8.91,0,0,0,1.11-.6l.35-.22a.53.53,0,0,1,.27-.1.42.42,0,0,1,.32.14.5.5,0,0,1,.12.34.68.68,0,0,1-.14.42,2.56,2.56,0,0,1-.54.46,4.09,4.09,0,0,1-1.31.63,5.41,5.41,0,0,1-1.53.23A4.49,4.49,0,0,1,80.32,69.94Z" transform="translate(0 0)"/><path class="cls-59" d="M95.94,60.52a.57.57,0,0,1,.4.16.49.49,0,0,1,.18.38.58.58,0,0,1-.06.26L90.8,73.74a.54.54,0,0,1-.52.34.6.6,0,0,1-.39-.14.42.42,0,0,1-.17-.36.53.53,0,0,1,.06-.24l1.42-3.1-4.1-8.92a.53.53,0,0,1-.06-.24.51.51,0,0,1,.21-.41.72.72,0,0,1,.45-.17.52.52,0,0,1,.52.36l3.6,8.08,3.6-8.06A.53.53,0,0,1,95.94,60.52Z" transform="translate(0 0)"/><path class="cls-59" d="M99.9,69.94a4.16,4.16,0,0,1-1.58-1.76,6.43,6.43,0,0,1,0-5.27,4.28,4.28,0,0,1,1.6-1.79,4.38,4.38,0,0,1,2.37-.64,5.62,5.62,0,0,1,1.48.2,3.87,3.87,0,0,1,1.28.6,2.18,2.18,0,0,1,.51.47.76.76,0,0,1,.15.45.52.52,0,0,1-.12.36.39.39,0,0,1-.3.14,1.3,1.3,0,0,1-.64-.34,5.56,5.56,0,0,0-1-.6,3.19,3.19,0,0,0-1.26-.22,3,3,0,0,0-2.44,1.07,4.49,4.49,0,0,0-.88,3,4.36,4.36,0,0,0,.87,2.89,3,3,0,0,0,2.43,1,3.14,3.14,0,0,0,1.27-.22,8.91,8.91,0,0,0,1.11-.6l.35-.22a.53.53,0,0,1,.27-.1.42.42,0,0,1,.32.14.5.5,0,0,1,.12.34.68.68,0,0,1-.14.42,2.56,2.56,0,0,1-.54.46,4.09,4.09,0,0,1-1.31.63,5.46,5.46,0,0,1-1.53.23A4.49,4.49,0,0,1,99.9,69.94Z" transform="translate(0 0)"/><path class="cls-59" d="M108.05,70.36a.58.58,0,0,1-.17-.46V56.84a.57.57,0,0,1,.17-.46.61.61,0,0,1,1,.46V69.9a.62.62,0,0,1-.17.46.68.68,0,0,1-.88,0Z" transform="translate(0 0)"/><path class="cls-59" d="M120.07,68.49a.56.56,0,0,1,.13.35c0,.29-.23.58-.68.86a5.89,5.89,0,0,1-3,.86,4.62,4.62,0,0,1-3.5-1.34,5.07,5.07,0,0,1-1.28-3.68,5.9,5.9,0,0,1,.57-2.65,4.2,4.2,0,0,1,1.6-1.78,4.47,4.47,0,0,1,2.37-.63,3.79,3.79,0,0,1,3,1.21A4.79,4.79,0,0,1,120.3,65a.78.78,0,0,1-.16.53.71.71,0,0,1-.52.17H113a4.15,4.15,0,0,0,1,2.8,3.3,3.3,0,0,0,2.54,1,4,4,0,0,0,1.44-.23,10,10,0,0,0,1.24-.61,1.41,1.41,0,0,1,.62-.3A.4.4,0,0,1,120.07,68.49ZM114,62.36a4,4,0,0,0-1,2.46h6.18a3.78,3.78,0,0,0-.8-2.47,2.69,2.69,0,0,0-2.14-.87A3,3,0,0,0,114,62.36Z" transform="translate(0 0)"/><path class="cls-59" d="M124.33,70.33a5,5,0,0,1-1.43-.63,2.41,2.41,0,0,1-.53-.45.68.68,0,0,1-.15-.43.47.47,0,0,1,.13-.34.41.41,0,0,1,.31-.14,1.46,1.46,0,0,1,.62.3,6.42,6.42,0,0,0,1.19.62,4.16,4.16,0,0,0,1.53.24,3.34,3.34,0,0,0,1.84-.43,1.39,1.39,0,0,0,.66-1.23,1.26,1.26,0,0,0-.24-.79,1.87,1.87,0,0,0-.8-.54,10.79,10.79,0,0,0-1.6-.45,6.15,6.15,0,0,1-2.53-1,2.09,2.09,0,0,1-.75-1.69,2.5,2.5,0,0,1,1-2.07,4,4,0,0,1,2.6-.79,5.64,5.64,0,0,1,1.49.2,3.89,3.89,0,0,1,1.23.58c.46.32.7.63.7.94a.56.56,0,0,1-.13.35.4.4,0,0,1-.31.15,1.28,1.28,0,0,1-.62-.32,6.18,6.18,0,0,0-1.07-.61,3.52,3.52,0,0,0-1.35-.23,2.68,2.68,0,0,0-1.66.47,1.49,1.49,0,0,0-.62,1.27,1.29,1.29,0,0,0,.21.76,1.69,1.69,0,0,0,.72.53,8.81,8.81,0,0,0,1.47.45,10.38,10.38,0,0,1,2.12.68,2.62,2.62,0,0,1,1.06.86,2.5,2.5,0,0,1-.71,3.25,4.55,4.55,0,0,1-2.73.75A6.14,6.14,0,0,1,124.33,70.33Z" transform="translate(0 0)"/><path class="cls-59" d="M50.92,43.17A16.48,16.48,0,0,1,54,53.35a15.87,15.87,0,0,1-6.09,13.12Q41.85,71.3,31.16,71.3H6.79a6.77,6.77,0,0,1-5-1.77,6.77,6.77,0,0,1-1.77-5v-52a6.8,6.8,0,0,1,1.77-5,6.81,6.81,0,0,1,5-1.76H30.23q10.22,0,16.22,4.55a14.81,14.81,0,0,1,6,12.46,15.07,15.07,0,0,1-2.74,9,15.64,15.64,0,0,1-7.58,5.63A16.41,16.41,0,0,1,50.92,43.17ZM14.14,32.43H27.81q5.58,0,8.23-1.91a6.7,6.7,0,0,0,2.65-5.81c0-2.73-.89-4.73-2.65-6s-4.51-1.91-8.23-1.91H14.14ZM37.85,58.28q2.61-2,2.61-6.32t-2.61-6.42c-1.74-1.36-4.53-2-8.37-2H14.14V60.23H29.48Q35.24,60.23,37.85,58.28Z" transform="translate(0 0)"/></svg>